<svg xmlns="http://www.w3.org/2000/svg" xmlns:xlink="http://www.w3.org/1999/xlink" width="48" height="48" viewBox="0 0 48 48"><defs><style>.a,.k{fill:#fff;}.a{stroke:#707070;}.b{clip-path:url(#a);}.c{fill:#ffd064;}.d{fill:#eabc6b;}.e{fill:#e8ae4d;}.f{fill:#ffe07d;}.g{fill:#ffddce;}.h{fill:#ffcbbe;}.i{fill:#f5dbcc;}.j{fill:#407093;}</style><clipPath id="a"><rect class="a" width="48" height="48" transform="translate(288 520)"/></clipPath></defs><g class="b" transform="translate(-288 -520)"><g transform="translate(288 520)"><path class="c" d="M21.571,8.832a.723.723,0,0,1-.584-.3,3.921,3.921,0,0,0-3.675-1.725,7.276,7.276,0,0,1-4.754-1.08.724.724,0,0,1,.78-1.221,5.841,5.841,0,0,0,3.821.86,5.388,5.388,0,0,1,5,2.307.724.724,0,0,1-.583,1.154Z"/><path class="c" d="M13.988,12.678a.724.724,0,0,1-.617-1.1,7.132,7.132,0,0,1,4.92-3.006,13.133,13.133,0,0,1,3.13-.236.724.724,0,0,1-.1,1.445c-.05,0-4.968-.295-6.718,2.555a.724.724,0,0,1-.618.346Z"/><path class="d" d="M24.906,40.432c11.9,0,18.472-17.448-.312-30.924a1.762,1.762,0,0,1-.738-1.45,2.357,2.357,0,0,1,.428-1.326,34.279,34.279,0,0,0,2.9-5.134.6.6,0,0,0-.565-.86C25.5.738,25.5,0,24.367,0S23.239.738,22.11.738c-.962,0-1.356-.827-1.823-.226-1.363,1.755,3.306,7.925,3.306,7.925C2.97,21.995,9.62,40.432,21.8,40.432h3.11Z"/><path class="e" d="M29.582,8.438s4.739-6.15,3.376-7.915c-.464-.6-.86.215-1.821.215C30.009.738,30.009,0,28.88,0s-1.128.738-2.257.738c-.056,0-.106,0-.157-.007C26.013,2.675,23.97,5.7,22.8,7.324c.46.676.792,1.114.792,1.114q-.413.271-.81.545c19.7,13.543,13.111,31.449,1.06,31.449h7.609c12.213,0,18.821-18.392-1.87-31.994Z"/><path class="f" d="M30.463,10.625a16.485,16.485,0,0,1-8.228,0,1.757,1.757,0,0,1-1.157-2.3l.012-.033A1.621,1.621,0,0,1,23,7.212a13.4,13.4,0,0,0,6.692,0,1.621,1.621,0,0,1,1.913,1.081l.012.033a1.757,1.757,0,0,1-1.157,2.3Z"/><path class="g" d="M4.573,43.6l10.486,3.9a7.98,7.98,0,0,0,2.784.5H28.65a7.98,7.98,0,0,0,4.271-1.239l13.532-8.574a2.375,2.375,0,0,0,.387-3.112,2.413,2.413,0,0,0-3.288-.635l-13.174,5.8.016-2.137a3.826,3.826,0,0,0-3.271-3.409L19.1,33.769a10.585,10.585,0,0,1-4.389-1.826,14.379,14.379,0,0,0-7.26-1.968H4.573Z"/><path class="g" d="M14.422,45.419a8.39,8.39,0,0,0,2.926.527H28.71a8.388,8.388,0,0,0,3.492-.762l7.944-5.034a2.453,2.453,0,0,0,.751-3.49s-.242-.414-.49-.836L30.377,40.24l.016-2.137a3.826,3.826,0,0,0-3.271-3.409L19.1,33.769a10.585,10.585,0,0,1-4.389-1.826,14.379,14.379,0,0,0-7.26-1.968H4.573V41.753Z"/><path class="h" d="M46.839,35.074a2.413,2.413,0,0,0-3.288-.635l-3.624,1.6.315.5a2.375,2.375,0,0,1-.387,3.112l-7.885,5a7.979,7.979,0,0,1-3.321.725H17.843a7.98,7.98,0,0,1-2.784-.5l-10.487-3.9V43.6l10.487,3.9a7.98,7.98,0,0,0,2.784.5H28.65a7.98,7.98,0,0,0,4.271-1.239l13.532-8.574a2.375,2.375,0,0,0,.386-3.112Z"/><path class="i" d="M29.409,35.9v.052l.034-.015-.034-.037Z"/><path class="h" d="M30.377,40.239H22.185a.724.724,0,0,1,0-1.449h8.2Z"/><path class="j" d="M6.829,45.684a1.378,1.378,0,0,1-1.378,1.378H2.127A1.378,1.378,0,0,1,.749,45.684V28.815a1.378,1.378,0,0,1,1.378-1.378H5.452a1.378,1.378,0,0,1,1.378,1.378Z"/><path class="k" d="M28.183,22.446c-.332-.117-.637-.229-.919-.338V17.49a2.976,2.976,0,0,1,1.409.619.724.724,0,0,0,.978-1.068,4.485,4.485,0,0,0-2.387-1.013V15a.724.724,0,0,0-1.449,0v1.089a5.36,5.36,0,0,0-.537.131,3.5,3.5,0,0,0-2.4,2.749,3.063,3.063,0,0,0,1,3.019,8.775,8.775,0,0,0,1.939,1.1V28.81a3.845,3.845,0,0,1-2.253-.781.724.724,0,1,0-.793,1.212,5.3,5.3,0,0,0,3.046,1.017v1.15a.724.724,0,1,0,1.449,0v-1.2A4.243,4.243,0,0,0,30.742,26.7a3.715,3.715,0,0,0-2.559-4.25Zm-3.412-1.6a1.633,1.633,0,0,1-.466-1.611A2.072,2.072,0,0,1,25.7,17.6l.12-.033v3.912a6.1,6.1,0,0,1-1.045-.637Zm4.543,5.609a2.821,2.821,0,0,1-2.049,2.271V23.655c.141.052.285.1.436.157a2.28,2.28,0,0,1,1.614,2.644Z"/></g></g></svg>