<svg xmlns="http://www.w3.org/2000/svg" xmlns:xlink="http://www.w3.org/1999/xlink" width="114" height="114" viewBox="0 0 114 114"><defs><style>.a,.g,.p,.q,.r{fill:#fff;}.a{stroke:#707070;}.b{clip-path:url(#a);}.c{fill:#f0f0f0;}.d{fill:#e6e6e6;}.e{fill:#e0e0e0;}.f{fill:#407bff;}.h{opacity:0.3;}.i,.p{opacity:0.2;}.j{fill:#455a64;}.k{fill:#37474f;}.l{fill:#263238;}.m{fill:#ffa8a7;}.n,.q{opacity:0.1;}.o{fill:#f28f8f;}.r{opacity:0.05;}</style><clipPath id="a"><rect class="a" width="114" height="114" transform="translate(35 491)"/></clipPath></defs><g class="b" transform="translate(-35 -491)"><g transform="translate(27.337 480.561)"><path class="c" d="M104.838,68.45c22.332,12.635,22.449,33.108.259,45.753s-58.275,12.633-80.607,0S2.038,81.1,24.231,68.45,82.511,55.815,104.838,68.45Z"/><path class="d" d="M31.8,13.036A6.788,6.788,0,0,0,29.044,16.6a2.178,2.178,0,0,0-.9.31l-.194.119a5.269,5.269,0,0,0-2.069,3.324,3.062,3.062,0,0,0,0,1.035.181.181,0,0,1-.083.168l-1.252.716a2.175,2.175,0,0,0-.983,1.7c0,.626.445.879.991.564L36.742,17.5a2.157,2.157,0,0,0,.983-1.7c0-.626-.445-.877-.988-.561l-2,1.151c-.062.036-.1,0-.08-.088a5,5,0,0,0,.222-1.8,1.8,1.8,0,0,0-2.845-1.586A2.05,2.05,0,0,0,31.8,13.036Z"/><path class="d" d="M22.273,11.484a4.676,4.676,0,0,0-1.9,2.46,1.5,1.5,0,0,0-.621.212,1.472,1.472,0,0,0-.135.085,3.621,3.621,0,0,0-1.43,2.294,2.116,2.116,0,0,0,0,.711.124.124,0,0,1-.057.116l-.861.5a1.5,1.5,0,0,0-.678,1.174c0,.432.308.605.683.388l8.411-4.858a1.5,1.5,0,0,0,.678-1.174c0-.432-.308-.605-.683-.388l-1.366.794c-.044.026-.072,0-.057-.059a3.438,3.438,0,0,0,.153-1.242A1.247,1.247,0,0,0,22.438,11.4Z"/><path class="e" d="M27.746,97.533l3.588,2.147a1.756,1.756,0,0,0,1.811,0L62.312,82.213a.623.623,0,0,0,0-1.063L58.714,79A1.756,1.756,0,0,0,56.9,79L27.746,96.478a.623.623,0,0,0,0,1.055Z"/><path class="e" d="M95.64,92.277c6.027,3.481,6.06,9.123.072,12.6s-15.729,3.481-21.755,0-6.06-9.12-.072-12.6S89.613,88.8,95.64,92.277Z"/><path class="f" d="M24.1,78.5a3.714,3.714,0,0,1-1.474-2.253,2.023,2.023,0,0,1,1.324-1.886,3.065,3.065,0,0,1,2.387.181,6.536,6.536,0,0,1,1.911,1.529,15.312,15.312,0,0,1,3.606,13.378,1.113,1.113,0,0,1-.45.8c-.445.235-.952-.178-1.257-.579a9.27,9.27,0,0,1-1.477-2.923c-.259-.892-.145-1.875-.481-2.716A17.006,17.006,0,0,0,24.1,78.5Z"/><path class="f" d="M24.1,78.5a3.714,3.714,0,0,1-1.474-2.253,2.023,2.023,0,0,1,1.324-1.886,3.065,3.065,0,0,1,2.387.181,6.536,6.536,0,0,1,1.911,1.529,15.312,15.312,0,0,1,3.606,13.378,1.113,1.113,0,0,1-.45.8c-.445.235-.952-.178-1.257-.579a9.27,9.27,0,0,1-1.477-2.923c-.259-.892-.145-1.875-.481-2.716A17.006,17.006,0,0,0,24.1,78.5Z"/><path class="g" d="M31.018,89.044h0a.176.176,0,0,1-.176-.178,17.4,17.4,0,0,0-6.513-13.427.181.181,0,0,1-.031-.259.184.184,0,0,1,.259-.028A17.751,17.751,0,0,1,31.2,88.861a.178.178,0,0,1-.186.184Z"/><path class="f" d="M28.837,96.1a2.8,2.8,0,0,1-3.174-.859c-.776-1.154-.287-2.933-1.309-3.88a4.414,4.414,0,0,0-2.17-.729c-.758-.155-1.6-.577-1.712-1.342-.15-1.014,1.1-1.857.923-2.868s-1.552-1.309-1.958-2.235a1.762,1.762,0,0,1,1.154-2.18,3.967,3.967,0,0,1,2.7.222,11.952,11.952,0,0,0,2.62.859c.916.114,2.054-.07,2.752.585.936.874.4,2.543,1.123,3.6.486.709,1.4.954,2.1,1.451a3.262,3.262,0,0,1-.127,5.424A9.8,9.8,0,0,1,28.837,96.1Z"/><path class="h" d="M28.837,96.1a2.8,2.8,0,0,1-3.174-.859c-.776-1.154-.287-2.933-1.309-3.88a4.414,4.414,0,0,0-2.17-.729c-.758-.155-1.6-.577-1.712-1.342-.15-1.014,1.1-1.857.923-2.868s-1.552-1.309-1.958-2.235a1.762,1.762,0,0,1,1.154-2.18,3.967,3.967,0,0,1,2.7.222,11.952,11.952,0,0,0,2.62.859c.916.114,2.054-.07,2.752.585.936.874.4,2.543,1.123,3.6.486.709,1.4.954,2.1,1.451a3.262,3.262,0,0,1-.127,5.424A9.8,9.8,0,0,1,28.837,96.1Z"/><path class="g" d="M28.333,88.157l-.013-.018c-.168-.243-.341-.484-.517-.714a12.886,12.886,0,0,0-6.44-4.283.178.178,0,1,0-.1.341,12.524,12.524,0,0,1,6.262,4.164c.049.062.093.132.142.194a5.5,5.5,0,0,0-5.147.561.185.185,0,1,0,.233.287,5.308,5.308,0,0,1,5.336-.279,12.516,12.516,0,0,1,2.131,6.257.176.176,0,0,0,.176.166h0a.176.176,0,0,0,.168-.186,12.881,12.881,0,0,0-2.232-6.49Z"/><path class="f" d="M96.92,84.166a3,3,0,0,0,1.195-1.826,1.635,1.635,0,0,0-1.073-1.529,2.473,2.473,0,0,0-1.937.147A5.228,5.228,0,0,0,93.553,82.2a12.415,12.415,0,0,0-2.928,10.863.918.918,0,0,0,.367.652c.362.191.776-.145,1.019-.471a7.47,7.47,0,0,0,1.2-2.374c.217-.722.119-1.521.391-2.2A13.791,13.791,0,0,1,96.92,84.166Z"/><path class="g" d="M91.3,92.725h0a.145.145,0,0,0,.145-.145,14.112,14.112,0,0,1,5.287-10.895.145.145,0,0,0-.178-.225,14.407,14.407,0,0,0-5.393,11.122.145.145,0,0,0,.14.142Z"/><path class="f" d="M93.077,98.449a2.3,2.3,0,0,0,2.587-.7c.618-.936.233-2.38,1.06-3.137a3.577,3.577,0,0,1,1.761-.592c.616-.127,1.293-.466,1.389-1.086.122-.825-.89-1.508-.748-2.328s1.257-1.06,1.588-1.811a1.43,1.43,0,0,0-.936-1.769,3.242,3.242,0,0,0-2.188.178,9.694,9.694,0,0,1-2.126.7c-.742.091-1.666-.057-2.232.476-.76.709-.326,2.069-.913,2.92-.393.574-1.133.776-1.7,1.174a2.649,2.649,0,0,0,.1,4.4A8.134,8.134,0,0,0,93.077,98.449Z"/><path class="h" d="M93.077,98.449a2.3,2.3,0,0,0,2.587-.7c.618-.936.233-2.38,1.06-3.137a3.577,3.577,0,0,1,1.761-.592c.616-.127,1.293-.466,1.389-1.086.122-.825-.89-1.508-.748-2.328s1.257-1.06,1.588-1.811a1.43,1.43,0,0,0-.936-1.769,3.242,3.242,0,0,0-2.188.178,9.694,9.694,0,0,1-2.126.7c-.742.091-1.666-.057-2.232.476-.76.709-.326,2.069-.913,2.92-.393.574-1.133.776-1.7,1.174a2.649,2.649,0,0,0,.1,4.4A8.134,8.134,0,0,0,93.077,98.449Z"/><path class="g" d="M93.488,92.006V91.99c.137-.2.277-.391.427-.577a10.427,10.427,0,0,1,5.235-3.471.144.144,0,1,1,.078.277,10.137,10.137,0,0,0-5.077,3.373c-.041.052-.078.106-.116.158a4.458,4.458,0,0,1,4.175.455.145.145,0,0,1-.091.259.137.137,0,0,1-.091-.034A4.313,4.313,0,0,0,93.7,92.2a10.173,10.173,0,0,0-1.741,5.083.145.145,0,0,1-.145.134h0a.142.142,0,0,1-.134-.153,10.429,10.429,0,0,1,1.811-5.264Z"/><path class="f" d="M72.682,28.235a.133.133,0,0,1,.215.124V29.81a.471.471,0,0,1-.215.37.132.132,0,0,1-.215-.122V28.607A.476.476,0,0,1,72.682,28.235Z"/><path class="f" d="M69.922,30.992a.147.147,0,0,1,.166,0l.815.641c.078.062.065.225-.026.365a.406.406,0,0,1-.137.137.145.145,0,0,1-.166,0l-.815-.641c-.078-.062-.067-.225.026-.365a.416.416,0,0,1,.137-.137Z"/><path class="f" d="M68.965,32.865a.189.189,0,0,1,.1-.016l1.1.1c.1,0,.14.14.08.292a.484.484,0,0,1-.186.23.181.181,0,0,1-.109.028l-1.1-.093c-.1,0-.137-.14-.078-.292a.463.463,0,0,1,.2-.246Z"/><path class="f" d="M70.069,36.47c.075-.044.147-.041.186.016a.36.36,0,0,1-.078.383l-1.092,1.358a.385.385,0,0,1-.106.093c-.075.044-.147.041-.189-.016a.365.365,0,0,1,.078-.383l1.092-1.358a.393.393,0,0,1,.109-.093Z"/><path class="f" d="M69.7,35.526c.1-.057.194-.026.212.083a.458.458,0,0,1-.173.388l-1.244.97-.036.026c-.1.059-.194.028-.212-.083a.45.45,0,0,1,.173-.388l1.242-.97Z"/><path class="f" d="M75.462,27.795a.166.166,0,0,1,.14-.023c.091.036.1.184.028.334l-.81,1.58a.445.445,0,0,1-.166.184.176.176,0,0,1-.14.023c-.091-.036-.1-.186-.026-.336l.807-1.578a.429.429,0,0,1,.166-.184Z"/><path class="f" d="M74.164,27.676a.217.217,0,0,1,.075-.026c.111-.018.168.091.129.243L73.939,29.5a.471.471,0,0,1-.2.279.212.212,0,0,1-.072.028c-.111.018-.171-.091-.129-.243l.427-1.611A.484.484,0,0,1,74.164,27.676Z"/><g class="i"><path d="M72.682,28.235a.133.133,0,0,1,.215.124V29.81a.471.471,0,0,1-.215.37.132.132,0,0,1-.215-.122V28.607A.476.476,0,0,1,72.682,28.235Z"/><path d="M69.922,30.992a.147.147,0,0,1,.166,0l.815.641c.078.062.065.225-.026.365a.406.406,0,0,1-.137.137.145.145,0,0,1-.166,0l-.815-.641c-.078-.062-.067-.225.026-.365a.416.416,0,0,1,.137-.137Z"/><path d="M68.965,32.865a.189.189,0,0,1,.1-.016l1.1.1c.1,0,.14.14.08.292a.484.484,0,0,1-.186.23.181.181,0,0,1-.109.028l-1.1-.093c-.1,0-.137-.14-.078-.292a.463.463,0,0,1,.2-.246Z"/><path d="M70.069,36.47c.075-.044.147-.041.186.016a.36.36,0,0,1-.078.383l-1.092,1.358a.385.385,0,0,1-.106.093c-.075.044-.147.041-.189-.016a.365.365,0,0,1,.078-.383l1.092-1.358a.393.393,0,0,1,.109-.093Z"/><path d="M69.7,35.526c.1-.057.194-.026.212.083a.458.458,0,0,1-.173.388l-1.244.97-.036.026c-.1.059-.194.028-.212-.083a.45.45,0,0,1,.173-.388l1.242-.97Z"/><path d="M75.462,27.795a.166.166,0,0,1,.14-.023c.091.036.1.184.028.334l-.81,1.58a.445.445,0,0,1-.166.184.176.176,0,0,1-.14.023c-.091-.036-.1-.186-.026-.336l.807-1.578a.429.429,0,0,1,.166-.184Z"/><path d="M74.164,27.676a.217.217,0,0,1,.075-.026c.111-.018.168.091.129.243L73.939,29.5a.471.471,0,0,1-.2.279.212.212,0,0,1-.072.028c-.111.018-.171-.091-.129-.243l.427-1.611A.484.484,0,0,1,74.164,27.676Z"/></g><path class="j" d="M73.365,100.518a3.241,3.241,0,0,0,2.465.929,7.322,7.322,0,0,0,2.6-.675c.835-.352,1.88-1.335,2.783-1.317a21.314,21.314,0,0,0,2.636-.184,14.414,14.414,0,0,0-.375-3.66L79.27,95.5a10.374,10.374,0,0,1-5.015,3.419,1.5,1.5,0,0,0-1.035,1.133.107.107,0,0,0,0,.028,1.889,1.889,0,0,0,.145.44Z"/><path class="k" d="M81.217,99.455c-.9-.018-1.948.965-2.783,1.317a7.322,7.322,0,0,1-2.6.675,3.241,3.241,0,0,1-2.465-.929,1.889,1.889,0,0,1-.145-.44.107.107,0,0,1,0-.028,1.386,1.386,0,0,0,0,.574,1.889,1.889,0,0,0,.145.44,3.231,3.231,0,0,0,2.465.929,7.32,7.32,0,0,0,2.6-.673c.835-.352,1.88-1.335,2.783-1.317a19.26,19.26,0,0,0,2.587-.155c.021-.191.034-.385.041-.577A21.315,21.315,0,0,1,81.217,99.455Z"/><path class="k" d="M92.275,100.784a6.342,6.342,0,0,1-.127,1.309A3.044,3.044,0,0,1,90.981,104a3.688,3.688,0,0,1-1.855.517,4.027,4.027,0,0,1-1.694-.181,1.927,1.927,0,0,1-.993-.83s0,.016,0,.023a1.811,1.811,0,0,0,1.143,1.218,4,4,0,0,0,1.7.178,3.657,3.657,0,0,0,1.852-.5,3.029,3.029,0,0,0,1.167-1.909,6.318,6.318,0,0,0,.127-1.306,2.232,2.232,0,0,1,.685-1.6,3.775,3.775,0,0,0,.3-.316.776.776,0,0,0,.184-.572,1.81,1.81,0,0,0-.026-.238c-.153.186-.517.626-.61.714a2.24,2.24,0,0,0-.68,1.588Z"/><path class="j" d="M89.057,96.219a4.915,4.915,0,0,1-.339,2.662,10.284,10.284,0,0,1-1.368,2.307,6.917,6.917,0,0,0-.719,1.071,1.979,1.979,0,0,0-.2,1.236,1.927,1.927,0,0,0,.993.83,4.027,4.027,0,0,0,1.694.181,3.688,3.688,0,0,0,1.855-.517,3.044,3.044,0,0,0,1.167-1.906,6.341,6.341,0,0,0,.127-1.309,2.24,2.24,0,0,1,.683-1.6c.093-.088.458-.517.61-.714a4.886,4.886,0,0,0-.629-1.849Z"/><path class="k" d="M77.767,57.68l.318,22.26L79.12,95.521a3.975,3.975,0,0,0,4.475.308c.985-7.382,1.117-11.921.582-15l.491-12.012,1.464,12.48,2.483,15.289a3.609,3.609,0,0,0,4.542,0c0-5.659.491-11.986-1.035-16.068a96.062,96.062,0,0,0-.716-22.6Z"/><path class="l" d="M84.114,64.237l.543,4.589-.23,5.626-1-9.249c-2.328-.929-2.618-2.235-2.618-2.235A6.984,6.984,0,0,0,84.114,64.237Z"/><path class="j" d="M79.735,31.952l-.592-.31h-.036a.334.334,0,0,0-.308.016l-5.3,3.06a.683.683,0,0,0-.341.592v2.566a.331.331,0,0,0,.14.274h0a.308.308,0,0,0,.065.034l.574.305-.028-.468L78.959,35.1a.685.685,0,0,0,.344-.592V32.277Z"/><path class="j" d="M79.567,35.407l-5.3,3.06a.344.344,0,0,1-.517-.295V35.6a.691.691,0,0,1,.341-.592l5.315-3.06a.341.341,0,0,1,.517.3v2.566A.68.68,0,0,1,79.567,35.407Z"/><path class="f" d="M74.094,35.6a.344.344,0,0,1,.171-.295l5.3-3.06v2.566a.344.344,0,0,1-.171.3L74.1,38.17Z"/><path class="m" d="M77.262,39.4a.918.918,0,0,1,.344-.411,2.39,2.39,0,0,0,.975-1.2,6.64,6.64,0,0,0,.243-1.632,2.543,2.543,0,0,1,.559-1.523c-.942-.38-1.324.476-1.666,1.847l-3.153,1.811.044.1a.776.776,0,0,1,0,.641L73.69,40.9a3.207,3.207,0,0,0,3.1.349,15.8,15.8,0,0,1,.468-1.847Z"/><path class="e" d="M76.626,43.174c.166-.67.365-1.552.494-2.328a4.069,4.069,0,0,1-3.541-.419,18.151,18.151,0,0,0-1,1.961,4.589,4.589,0,0,0,4.051.786Z"/><path class="c" d="M76.334,44.292s.129-.46.292-1.117a4.589,4.589,0,0,1-4.051-.794,20.84,20.84,0,0,0-1.632,6.505,5.556,5.556,0,0,0,.1,1.963,2.312,2.312,0,0,0,1.182,1.511,2.718,2.718,0,0,0,2.587-.468,11.341,11.341,0,0,0,3.169-4.043l2.294-8.192C78.913,39.807,77.8,40.57,76.334,44.292Z"/><path class="n" d="M76.334,44.292c-.538,1.9-1.379,4.943-1.379,4.943A6.148,6.148,0,0,0,76.334,44.292Z"/><path class="n" d="M79.94,40.867A5.765,5.765,0,0,0,78.225,42.7a11.507,11.507,0,0,0-1.174,4.273q-.217,1.552-.432,3.1a22.852,22.852,0,0,0,1.366-2.222Z"/><path class="c" d="M82.725,39.406l-2.447.259c-2,1.767-3.039,5.473-2.607,9.57a53.629,53.629,0,0,1,.1,8.448c5.432,3.968,12.785,1.086,13.647.225l-.7-5.031a3.515,3.515,0,0,1,.274-1.653,18.8,18.8,0,0,0,1.552-5.352,9.5,9.5,0,0,0-.98-4.679l-3.556-1.552Z"/><path class="n" d="M90.992,51.213a21.225,21.225,0,0,0,1.474-4.682,2.777,2.777,0,0,0-1.247,1.107,8.89,8.89,0,0,0-.5,5.127,3.5,3.5,0,0,1,.277-1.552Z"/><path class="f" d="M82.048,42.973a26.5,26.5,0,0,0-2.015,9.57l1.006,2.165,1.58-2.069a81.459,81.459,0,0,1,.189-9.516Z"/><path class="f" d="M81.96,41.193a7.348,7.348,0,0,0,.088,1.78,1.412,1.412,0,0,0,.76.14,6.184,6.184,0,0,0,1.221-1.477l-1.221-.442Z"/><path class="e" d="M82.808,41.193c1.053.388,1.989,2.263,1.989,2.263,2.768-2.349,3.2-3.815,3.2-3.815a2.748,2.748,0,0,0-1.487-1.174Z"/><path class="e" d="M82.808,41.193c-.8.023-1.516,1.143-1.516,1.143a4.876,4.876,0,0,1,1.516-3.471Z"/><path class="o" d="M86.574,36.271l-3.766,1.345V39.01a6.166,6.166,0,0,0,2.387-.866,3.665,3.665,0,0,0,1.379-1.873Z"/><path class="m" d="M86.574,36.271A3.665,3.665,0,0,1,85.2,38.144a6.166,6.166,0,0,1-2.387.866v2.183s3.981-1.787,3.981-2.628V36.193Z"/><path class="l" d="M79.319,30.749a2.274,2.274,0,0,1-2.069-1.164.313.313,0,0,1,.339-.45,2.467,2.467,0,0,0,.872,0,4.138,4.138,0,0,1-.812-3.078.391.391,0,0,1,.556-.292,7.648,7.648,0,0,0,3.867.776c.711-.049,1.412-.2,2.124-.259a3.937,3.937,0,0,1,2.087.318,1.984,1.984,0,0,1,1.138,1.681.98.98,0,0,1,.706-.409,1.089,1.089,0,0,1,.823.243c-.411.228-.812.455-1.223.68a1.068,1.068,0,0,1,1.161.574,2.83,2.83,0,0,1,.225,1.309,10.188,10.188,0,0,1-.08,1.777,3.412,3.412,0,0,1-.673,1.63,2.587,2.587,0,0,1-1.226.83,3.342,3.342,0,0,1-1.986-.065,7.883,7.883,0,0,1-1.811-.9,28.3,28.3,0,0,1-4.017-3.2Z"/><path class="m" d="M79.228,29.564A13.665,13.665,0,0,0,80,36.871a2.605,2.605,0,0,0,.991,1.376,2.81,2.81,0,0,0,1.772.145,8.97,8.97,0,0,0,2.8-.776A3.815,3.815,0,0,0,87.5,35.529a1.676,1.676,0,0,0,1.7-.665,3.174,3.174,0,0,0,.551-1.855c0-.419-.078-.913-.455-1.1a1.028,1.028,0,0,0-1.073.259,3.212,3.212,0,0,0-1.035,1.567c-.277-1.019-.709-2-.985-3.026a1.714,1.714,0,0,0-.595-1.066,1.939,1.939,0,0,0-1.479,0,9.762,9.762,0,0,1-4.9-.083Z"/><path class="o" d="M82.205,32.663,81.01,34.675l1.425.266Z"/><path class="o" d="M83.8,35.635l-1.084.517a.711.711,0,0,0,.823.235.644.644,0,0,0,.261-.753Z"/><path class="h" d="M83.8,35.635l-1.084.517a.711.711,0,0,0,.823.235.644.644,0,0,0,.261-.753Z"/><path class="o" d="M83.17,36.429a.662.662,0,0,0,.378-.034.579.579,0,0,0,.287-.572.683.683,0,0,0-.424.147A.691.691,0,0,0,83.17,36.429Z"/><path class="l" d="M84.269,32.743a.411.411,0,1,1-.45-.365A.409.409,0,0,1,84.269,32.743Z"/><path class="l" d="M80.84,32.958a.409.409,0,1,1-.45-.367A.409.409,0,0,1,80.84,32.958Z"/><path class="l" d="M80.278,31.377l-.838.714a.582.582,0,0,1,.111-.654A.688.688,0,0,1,80.278,31.377Z"/><path class="l" d="M83.76,30.976c.321.178.641.357.965.533a.585.585,0,0,0-.241-.621.7.7,0,0,0-.724.088Z"/><path class="m" d="M99.871,50.031l1.293-.641a2.307,2.307,0,0,0,.97-.905l.406-.7a2.845,2.845,0,0,1,1.19-1.107,9.687,9.687,0,0,0,2.069-1.371h0a1.079,1.079,0,0,1-.166,1.35,7.759,7.759,0,0,1-.848.675l.623.158a2.217,2.217,0,0,0,1.358-.083l1.78-.691a.31.31,0,0,1,.416.341,7.046,7.046,0,0,1-.882,2.232,2.659,2.659,0,0,1-1.811,1.27c-.908.171-1.787.305-2.287.375a2.767,2.767,0,0,0-.823.259l-1.909.949Z"/><path class="c" d="M98.635,52.031a3.233,3.233,0,0,1-.228-1.692L95.961,51.5a51.036,51.036,0,0,1-1.035-5.4c-.29-2.455-.225-4.1-3.383-4.914l-.334,6.466s.388,7.889,2.651,8.763c1.873.722,3.194-1.06,6.052-2.907a3.231,3.231,0,0,1-1.278-1.474Z"/><path class="n" d="M94.334,53.115A3.039,3.039,0,0,1,95.971,51.5s-.072-.287-.178-.753A2.3,2.3,0,0,0,94.334,53.115Z"/><path class="e" d="M100.6,49.3l-2.188,1.035A3.181,3.181,0,0,0,99.923,53.5a20.052,20.052,0,0,1,2-1.135A4.415,4.415,0,0,1,100.6,49.3Z"/><path class="f" d="M109.555,17.7a.328.328,0,0,0-.168-.287h0l-1.5-.83h-.013a.323.323,0,0,0-.321,0l-10.222,5.9a1.006,1.006,0,0,0-.5.866v3.8L93.3,30.813c-.316.328-.349.823-.1.9l1.41.776a.22.22,0,0,0,.194.062l2.054-.259v2.788a.323.323,0,0,0,.163.285h0l1.485.825h.036a.328.328,0,0,0,.305-.013l10.222-5.9a.993.993,0,0,0,.5-.866ZM98.6,23.509l-.034.039Zm-.1.124-.026.036Zm-.142.334a.256.256,0,0,0,0,.044.258.258,0,0,1,0-.044Zm.313-.517a.386.386,0,0,1,.036-.031l-.036.018Z"/><path class="g" d="M106.048,21.38a.386.386,0,0,0-.119.093.328.328,0,0,0-.059.106,5.283,5.283,0,0,0-.285.693c-.085.21-.166.419-.238.631a.517.517,0,0,0-.044.119.776.776,0,0,0-.057.158c-.047.119-.093.235-.137.354-.018.034-.034.065-.049.1a1.983,1.983,0,0,0-.114.305.279.279,0,0,0,.031.277.885.885,0,0,0,.4.217l.039.013.124.034.215.106.041.026c.013.018.028.034.041.049a.259.259,0,0,1,.034.062.233.233,0,0,1,0,.106c-.013.052-.026.106-.036.158s-.065.176-.1.259l-.047.114-.16.378c-.054.122-.093.222-.132.323a1.882,1.882,0,0,0-.1.222l-.054.111c-.044.093-.091.186-.134.282l-.039.083-.145.259-.054.1-.168.295-.044.075-.166.316-.052.078-.388.564-.155.21-.044.059-.473.6-.181.171a.471.471,0,0,1-.122.1.184.184,0,0,1-.194,0l-.116-.059c0-.018-.016-.021-.028-.023a3.548,3.548,0,0,0-.517-.378.215.215,0,0,0-.23,0,.388.388,0,0,0-.059.044.993.993,0,0,0-.2.225.1.1,0,0,0-.044.054c-.142.2-.3.378-.447.569s-.272.318-.4.484c-.075.085-.147.173-.217.259s-.158.194-.233.3a.718.718,0,0,0-.08.111.388.388,0,0,0-.093.318,1.292,1.292,0,0,0,.018.207.9.9,0,0,0,.054.259.564.564,0,0,0,.047.158.422.422,0,0,0,.026.047.083.083,0,0,0,0,.036.235.235,0,0,0,.028.041.14.14,0,0,0,.075.085.235.235,0,0,0,.093.075l.065.026h.044l.054.021h.026a.212.212,0,0,0,.091,0,.044.044,0,0,0,.044,0,.241.241,0,0,0,.114,0,.29.29,0,0,0,.124,0,.411.411,0,0,0,.124,0h.075a.828.828,0,0,0,.173-.036h.028l.062-.016a.106.106,0,0,0,.044-.018l.065-.023a1.224,1.224,0,0,0,.189-.072l.052-.026.041-.023a1.017,1.017,0,0,0,.106-.067,1.358,1.358,0,0,0,.122-.08,1.659,1.659,0,0,0,.134-.1q.057-.039.116-.085l.047-.041.023-.021.065-.054a2.54,2.54,0,0,0,.191-.184,1.139,1.139,0,0,0,.14-.134.129.129,0,0,0,.039-.044,2.507,2.507,0,0,0,.259-.259,2.328,2.328,0,0,0,.2-.194,1.329,1.329,0,0,0,.145-.15l.08-.083a.217.217,0,0,0,.059-.067.067.067,0,0,0,.028-.031l.044-.041a1.034,1.034,0,0,0,.067-.083,1.788,1.788,0,0,0,.132-.147l.041-.052.041-.052a3.154,3.154,0,0,0,.23-.285.592.592,0,0,0,.1-.127,1.456,1.456,0,0,0,.132-.173,2.526,2.526,0,0,0,.184-.259c.036-.047.052-.07.07-.091l.047-.067c.034-.047.062-.093.093-.142l.059-.08a.936.936,0,0,0,.052-.085.888.888,0,0,0,.1-.155,1.893,1.893,0,0,0,.135-.207.518.518,0,0,0,.041-.062.194.194,0,0,0,.018-.031l.018-.034.044-.062c.041-.065.08-.129.116-.2l.052-.085.163-.282a.323.323,0,0,0,.054-.091c.041-.067.08-.135.119-.207,0-.023.023-.047.036-.07a.517.517,0,0,0,.054-.1l.14-.259c.023-.049.049-.1.072-.145a1.25,1.25,0,0,0,.1-.2c.111-.2.21-.411.3-.623l.041-.1a1.618,1.618,0,0,0,.1-.23,7.641,7.641,0,0,0,.282-.727l.023-.062a3.88,3.88,0,0,0,.137-.427c.057-.176.1-.349.147-.517.016-.057.031-.114.044-.173a.083.083,0,0,0,.016-.057.367.367,0,0,0,0-.041l.021-.078a5.089,5.089,0,0,0,.15-.641v-.034a.116.116,0,0,0,0-.057V22.9a.544.544,0,0,1,0-.065,1.479,1.479,0,0,0,.023-.277v-.114a.163.163,0,0,0,0-.08v-.044a.75.75,0,0,0-.041-.238,1.245,1.245,0,0,0-.109-.331,1.278,1.278,0,0,0-.279-.455.3.3,0,0,0-.132-.109s-.013-.021-.028-.018a.23.23,0,0,0-.15-.047,1.151,1.151,0,0,0-.476.083l-.054.023a.585.585,0,0,0-.134.052l-.026.016C106.12,21.339,106.082,21.354,106.048,21.38Z"/><path class="n" d="M98.369,35.927a.326.326,0,0,0,.158.282l-1.485-.825h0a.323.323,0,0,1-.163-.285V32.311l1.492-.184Z"/><path class="p" d="M97.337,22.487l10.225-5.9a.323.323,0,0,1,.321,0h.013l1.5.83h0a.336.336,0,0,0-.331,0l-10.225,5.9a1,1,0,0,0-.424.479l-1.485-.856a.993.993,0,0,1,.411-.453Z"/><path class="q" d="M96.848,27.159v-3.8a.99.99,0,0,1,.088-.409l1.474.846a1.035,1.035,0,0,0-.075.385v3.8Z"/><path class="r" d="M93.309,30.813l3.538-3.655,1.5.833h0l-3.538,3.657c-.274.285-.336.691-.191.848l-1.41-.776C92.96,31.636,92.994,31.142,93.309,30.813Z"/><path class="k" d="M60.755,15.47h0a3.6,3.6,0,0,0-2.977-2.136,1.125,1.125,0,0,0-.391.085L30.444,30.079a2.716,2.716,0,0,0-1.035,1.205,2.993,2.993,0,0,0-.259,1.231V95.87c0,1.614,1.712,3.153,3.321,2.413h0a.909.909,0,0,0,.1-.047L59.521,81.546a2.845,2.845,0,0,0,1.293-2.434V15.778a.724.724,0,0,0-.059-.308Z"/><path class="f" d="M32.9,39.212a1.425,1.425,0,0,1,.652-1.218l25.02-15.473a.647.647,0,0,1,.962.608V74.218a1.423,1.423,0,0,1-.652,1.216l-25.02,15.5a.647.647,0,0,1-.962-.608Z"/><path class="l" d="M29.14,32.515V95.87c0,1.614,1.712,3.153,3.321,2.413h0a.652.652,0,0,1-.861-.654V34.266a2.974,2.974,0,0,1,.437-1.552L29.409,31.3a2.993,2.993,0,0,0-.269,1.218Z"/><path class="j" d="M57.781,13.331a1.125,1.125,0,0,0-.391.085L30.444,30.079a2.716,2.716,0,0,0-1.035,1.205l2.638,1.433a2.656,2.656,0,0,1,.866-.887L59.86,15.167a.618.618,0,0,1,.895.3h0A3.59,3.59,0,0,0,57.781,13.331Z"/><path class="l" d="M49.537,25.627c.191-.119.347-.026.347.21a.843.843,0,0,1-.344.649L44.253,29.8c-.189.119-.341.018-.341-.217a.83.83,0,0,1,.339-.641Z"/><path class="l" d="M42.9,29.8c.189-.119.341-.023.341.212a.835.835,0,0,1-.341.647c-.189.119-.344.023-.347-.215A.838.838,0,0,1,42.9,29.8Z"/><path class="l" d="M46.278,25.146c.378-.238.683-.049.683.424a1.676,1.676,0,0,1-.678,1.293c-.38.235-.693.041-.693-.429a1.668,1.668,0,0,1,.688-1.288Z"/><path class="l" d="M46.281,84.789c.776-.484,1.392-.1,1.394.864a3.413,3.413,0,0,1-1.386,2.628c-.771.484-1.407.088-1.41-.874a3.406,3.406,0,0,1,1.4-2.618Z"/><path class="g" d="M48.823,49.108a.7.7,0,0,0-.178.147.517.517,0,0,0-.091.168,8.517,8.517,0,0,0-.435,1.094c-.129.328-.259.66-.36.991a.776.776,0,0,0-.067.189,1.317,1.317,0,0,0-.088.259l-.21.554c-.023.054-.049.106-.072.158a3.143,3.143,0,0,0-.171.481.46.46,0,0,0,.044.435,1.392,1.392,0,0,0,.605.344l.062.018c.062.021.124.036.186.054l.326.166.062.044a.935.935,0,0,1,.065.078.272.272,0,0,1,.049.093.359.359,0,0,1,0,.168l-.054.259c-.047.14-.1.279-.145.416l-.07.181c-.072.194-.147.391-.222.585s-.142.352-.2.517a3.417,3.417,0,0,0-.15.347c-.026.059-.054.119-.08.176-.07.147-.137.295-.2.442l-.062.132-.217.429c-.026.054-.054.109-.083.163l-.259.466c-.021.039-.044.078-.067.116-.093.158-.186.318-.282.476l-.078.122c-.2.3-.393.595-.592.892l-.233.328-.065.091-.722.944-.243.277a.776.776,0,0,1-.184.163.279.279,0,0,1-.295.018l-.178-.1c0-.026-.023-.031-.041-.034a5.339,5.339,0,0,0-.8-.595.321.321,0,0,0-.349,0,.626.626,0,0,0-.091.067,1.785,1.785,0,0,0-.305.354.2.2,0,0,0-.062.091c-.217.313-.455.592-.68.892-.21.246-.416.5-.616.763-.114.134-.222.272-.326.422a5.416,5.416,0,0,0-.354.468.945.945,0,0,0-.122.178.623.623,0,0,0-.142.5,1.621,1.621,0,0,0,.026.323,1.454,1.454,0,0,0,.083.385.866.866,0,0,0,.072.259.632.632,0,0,0,.036.072.183.183,0,0,0,.013.057.3.3,0,0,0,.044.067.23.23,0,0,0,.114.134.352.352,0,0,0,.14.116.827.827,0,0,0,.1.041l.067.018a.463.463,0,0,0,.083.034h.039a.4.4,0,0,0,.137,0,.062.062,0,0,0,.065,0,.354.354,0,0,0,.173,0,.517.517,0,0,0,.189,0,.616.616,0,0,0,.191-.018h.114a1.477,1.477,0,0,0,.259-.059h.039a.617.617,0,0,0,.1-.023.223.223,0,0,0,.062-.028c.075-.023.088-.031.1-.036a2.145,2.145,0,0,0,.282-.114l.083-.041.059-.036a1.25,1.25,0,0,0,.16-.109L43,66.016a1.619,1.619,0,0,0,.2-.163,1.7,1.7,0,0,0,.181-.132c.023-.018.047-.041.07-.062l.034-.036.1-.085c.1-.091.2-.184.29-.287a1.681,1.681,0,0,0,.215-.215.163.163,0,0,0,.057-.067,4.441,4.441,0,0,0,.38-.393,4.215,4.215,0,0,0,.3-.308,1.922,1.922,0,0,0,.22-.235l.119-.132a.4.4,0,0,0,.093-.1.127.127,0,0,0,.041-.049.855.855,0,0,0,.067-.07,1,1,0,0,0,.1-.127,2.96,2.96,0,0,0,.2-.233l.062-.083.065-.078c.119-.147.238-.29.347-.453a.962.962,0,0,0,.15-.2,2.123,2.123,0,0,0,.2-.274,4.4,4.4,0,0,0,.279-.4c.054-.075.08-.109.1-.145s.052-.07.075-.106.093-.145.137-.22l.091-.127a1.484,1.484,0,0,0,.083-.137,1.552,1.552,0,0,0,.153-.243,3.014,3.014,0,0,0,.2-.328.479.479,0,0,0,.065-.1l.028-.049a.517.517,0,0,0,.026-.054c.023-.031.044-.065.065-.1a3.075,3.075,0,0,0,.178-.31l.08-.135.259-.445a.608.608,0,0,0,.08-.145c.065-.1.124-.212.181-.323l.054-.111a1.071,1.071,0,0,0,.083-.158l.212-.4c.036-.078.075-.153.111-.228a2.283,2.283,0,0,0,.155-.321c.168-.323.316-.652.453-.983l.062-.15a2.98,2.98,0,0,0,.153-.367c.16-.378.305-.76.427-1.143a.271.271,0,0,1,.036-.1,5.587,5.587,0,0,0,.2-.675c.091-.277.16-.551.228-.823.021-.093.044-.184.067-.274a.184.184,0,0,0,.023-.093.282.282,0,0,1,.018-.062l.031-.122a7.985,7.985,0,0,0,.228-1.014V51.8a.158.158,0,0,0,0-.088v-.054a.251.251,0,0,1,.013-.1v-.1a2.328,2.328,0,0,0,.036-.435c0-.059,0-.122,0-.181a.334.334,0,0,0,0-.127.589.589,0,0,1,0-.07,1.275,1.275,0,0,0-.065-.375,1.888,1.888,0,0,0-.166-.517,2.049,2.049,0,0,0-.422-.719.453.453,0,0,0-.2-.168.033.033,0,0,0-.044-.028.344.344,0,0,0-.228-.075,1.655,1.655,0,0,0-.722.132l-.083.034a1.082,1.082,0,0,0-.2.083l-.039.026A.392.392,0,0,0,48.823,49.108Z"/></g></g></svg>