<svg xmlns="http://www.w3.org/2000/svg" xmlns:xlink="http://www.w3.org/1999/xlink" width="48" height="48" viewBox="0 0 48 48"><defs><style>.a{fill:#fff;stroke:#707070;}.b{clip-path:url(#a);}.c{fill:#73c3f9;}.d{fill:#4fabf7;}.e{fill:#a05838;}.f{fill:#2a428c;}.g{fill:#1c2e7a;}.h{fill:#bec8f7;}.i{fill:#142766;}.j{fill:#fcad6d;}.k{fill:#fd995b;}.l{fill:#f9ba8f;}.m{fill:#ff4155;}.n{fill:#e9efff;}.o{fill:#e80054;}.p{fill:#cc0053;}.q{fill:#823c26;}.r{fill:#ffb332;}.s{fill:#ff9100;}.t{fill:#ffdd40;}</style><clipPath id="a"><rect class="a" width="48" height="48" transform="translate(288 664)"/></clipPath></defs><g class="b" transform="translate(-288 -664)"><g transform="translate(288 664)"><path class="c" d="M42.841,38.169a22.969,22.969,0,1,0-37.682,0Z"/><circle class="d" cx="16.875" cy="16.875" r="16.875" transform="translate(7.125 3.938)"/><path class="e" d="M14.249,10.982H33.963V13.8H14.249Z"/><path class="f" d="M40.271,33.041c-2.195-1.938-11.586-3.509-11.829-3.55H19.558c-.242.04-9.634,1.612-11.829,3.55-.783.691-1.7,2.751-2.568,5.128a22.966,22.966,0,0,0,37.678,0c-.864-2.378-1.785-4.437-2.568-5.128Z"/><path class="g" d="M25.211,45.8V29.491H19.558c-.242.04-9.634,1.612-11.829,3.55-.783.691-1.7,2.751-2.568,5.128a22.942,22.942,0,0,0,17.492,9.791Z"/><path class="h" d="M19.867,32.609h8.266v7.079H19.867Z"/><path class="i" d="M8.538,40.017v2a23.088,23.088,0,0,0,2.119,1.712L9.528,39.875A.505.505,0,0,0,8.538,40.017Z"/><path class="g" d="M39.462,40.017v2a23.088,23.088,0,0,1-2.119,1.712l1.128-3.853A.505.505,0,0,1,39.462,40.017Z"/><path class="j" d="M19.584,18.164V29.491c0,1.722,1.977,3.118,4.416,3.118s4.416-1.4,4.416-3.118V18.164Z"/><path class="k" d="M28.416,24.911V18.164H19.584V29.491C26.87,29.491,28.181,26.121,28.416,24.911Z"/><path class="j" d="M31.037,14.959s.974-2.37,2.709-1.82-.042,5.687-3.429,6.011Z"/><path class="k" d="M16.963,14.959s-.974-2.37-2.709-1.82.042,5.687,3.429,6.011Z"/><path class="l" d="M32.212,13.758c0,6.047-3.677,13.14-8.212,13.14s-8.212-7.092-8.212-13.14S19.464,3.363,24,3.363,32.212,7.711,32.212,13.758Z"/><path class="j" d="M19.538,13.758c0-5.187,2.705-9.124,6.337-10.139A6.951,6.951,0,0,0,24,3.363c-4.536,0-8.212,4.348-8.212,10.4S19.465,26.9,24,26.9a4.653,4.653,0,0,0,1.875-.407c-3.632-1.589-6.337-7.545-6.337-12.732Z"/><path class="k" d="M22.689,18.042l.791-1.26a.614.614,0,0,1,1.041,0l.791,1.26a.614.614,0,0,1-.52.941H23.209A.614.614,0,0,1,22.689,18.042Z"/><path class="i" d="M22.067,22.582h3.866a2.923,2.923,0,0,0,.845-1.278.7.7,0,0,0-.669-.914H21.891a.7.7,0,0,0-.669.914A2.923,2.923,0,0,0,22.067,22.582Z"/><path class="m" d="M25.933,22.582a2.92,2.92,0,0,1-3.866,0,2.92,2.92,0,0,1,3.866,0Z"/><path class="i" d="M29.156,15.2a1.172,1.172,0,1,0-2.344,0,.485.485,0,0,0,.829.329.485.485,0,0,1,.686,0A.485.485,0,0,0,29.156,15.2Z"/><path class="i" d="M18.844,15.2a1.172,1.172,0,1,1,2.344,0,.485.485,0,0,1-.829.329.485.485,0,0,0-.686,0A.485.485,0,0,1,18.844,15.2Z"/><path class="n" d="M19.584,28.088,24,32.609s-1.718,3.107-2.83,3.107-3.033-5.964-3.033-5.964Z"/><path class="n" d="M28.416,28.088,24,32.609s1.718,3.107,2.83,3.107,3.033-5.964,3.033-5.964Z"/><path class="m" d="M28.416,28.088,24,39.066,19.584,28.088,7.957,32.332a.469.469,0,0,0-.142.8L22.789,45.8a1.875,1.875,0,0,0,2.422,0L40.185,33.131a.469.469,0,0,0-.142-.8Z"/><path class="o" d="M7.815,33.131l9.951,8.417a22.922,22.922,0,0,1-1.978-12.074L7.957,32.332a.469.469,0,0,0-.142.8Z"/><path class="o" d="M36.944,31.2,24,42.15,11.056,31.2l-1.521.555L23.546,43.608a.7.7,0,0,0,.908,0L38.465,31.756Z"/><path class="p" d="M9.535,31.756l6.76,5.718c-.18-.753-.313-1.488-.409-2.188L11.056,31.2Z"/><path class="g" d="M34.421,1.406H13.579v9.4a.75.75,0,0,0,.75.75H33.671a.75.75,0,0,0,.75-.75Z"/><path class="i" d="M19.2,10.805v-9.4H13.579v9.4a.75.75,0,0,0,.75.75h5.625A.75.75,0,0,1,19.2,10.805Z"/><path class="q" d="M20.953,12.258H19.078a.7.7,0,0,1,0-1.406h1.875a.7.7,0,0,1,0,1.406Z"/><path class="q" d="M28.922,12.258H27.047a.7.7,0,0,1,0-1.406h1.875a.7.7,0,0,1,0,1.406Z"/><path class="f" d="M36.656,0H32.915l-.7.656L31.509,0H11.344a1.406,1.406,0,0,0,0,2.813H36.656a1.406,1.406,0,0,0,0-2.812Z"/><path class="g" d="M15.563,1.406A1.406,1.406,0,0,1,16.969,0H11.344a1.406,1.406,0,0,0,0,2.813h5.625A1.406,1.406,0,0,1,15.563,1.406Z"/><path class="r" d="M31.509,0h1.406V17.649H31.509Z"/><path class="s" d="M32.212,13.8a.7.7,0,0,1-.7-.7v4.55h1.406V13.1A.7.7,0,0,1,32.212,13.8Z"/><path class="m" d="M32.915,17.649H31.509v3.516a.7.7,0,0,0,1.406,0Z"/><path class="t" d="M33.585,17.649a1.373,1.373,0,0,1-2.745,0A1.373,1.373,0,0,1,33.585,17.649Z"/><path class="r" d="M32.212,17.649a1.371,1.371,0,0,1,.686-1.187,1.372,1.372,0,1,0,0,2.375A1.371,1.371,0,0,1,32.212,17.649Z"/></g></g></svg>