<svg xmlns="http://www.w3.org/2000/svg" xmlns:xlink="http://www.w3.org/1999/xlink" width="48" height="48" viewBox="0 0 48 48"><defs><style>.a{fill:#fff;stroke:#707070;}.b{clip-path:url(#a);}.c{fill:#ffac96;}.d{fill:#ffbcab;}.e{fill:#006df0;}.f{fill:#d80027;}.g{fill:#bd0022;}.h{fill:#f1f2f2;}</style><clipPath id="a"><rect class="a" width="48" height="48" transform="translate(288 592)"/></clipPath></defs><g class="b" transform="translate(-288 -592)"><g transform="translate(285.426 589.343)"><path class="c" d="M13.046,25.138,9.284,14.3a2.6,2.6,0,0,0-2.956-1.927,2.5,2.5,0,0,0-1.893,3.081L8.3,27.4Z"/><path class="c" d="M40.1,25.138,43.864,14.3a2.6,2.6,0,0,1,2.956-1.927,2.5,2.5,0,0,1,1.893,3.081L44.844,27.4Z"/><path class="d" d="M20.8,29.632l-7.341-4.3a2.486,2.486,0,0,0-3.156.564l-2.679-8.27A2.6,2.6,0,0,0,4.667,15.7a2.5,2.5,0,0,0-1.893,3.081L6.386,32.255a3.279,3.279,0,0,0,1,1.628L13,38.873a3.322,3.322,0,0,1,1.113,2.483v2.657h9.965v-8.65A6.644,6.644,0,0,0,20.8,29.632Z"/><path class="d" d="M48.481,15.7a2.6,2.6,0,0,0-2.956,1.927l-2.682,8.27a2.486,2.486,0,0,0-3.156-.564l-7.341,4.3a6.644,6.644,0,0,0-3.28,5.732v8.65h9.965V41.356a3.322,3.322,0,0,1,1.113-2.483l5.614-4.991a3.279,3.279,0,0,0,1-1.628l3.612-13.478A2.5,2.5,0,0,0,48.481,15.7Z"/><path class="e" d="M28.235,44.014v6.644H39.861V44.014H28.235Z"/><path class="e" d="M24.913,44.014H13.287v6.644H24.913Z"/><path class="f" d="M37.735,15.413l-.59.59L26.574,26.574,16,16l-.59-.59A7.473,7.473,0,1,1,25.986,4.849l.588.591.59-.59A7.473,7.473,0,1,1,37.737,15.414Z"/><path class="g" d="M37.735,4.85a7.391,7.391,0,0,0-6.119-2.142,7.469,7.469,0,0,1,4.458,12.706l-.59.59-9.741,9.74.83.83L37.146,16l.59-.59A7.474,7.474,0,0,0,37.735,4.85Z"/><path class="h" d="M28.235,18.27V14.948h3.322V11.626H28.235V8.3H24.913v3.322H21.592v3.322h3.322V18.27Z"/><path class="c" d="M42.182,27.986l-5.551,3.073A.719.719,0,1,0,37.35,32.3l4.832-2.657a2.491,2.491,0,0,0,1.1-3,2.467,2.467,0,0,1-1.1,1.336Z"/><path class="c" d="M10.967,27.986l5.551,3.073A.719.719,0,1,1,15.8,32.3l-4.832-2.657a2.491,2.491,0,0,1-1.1-3,2.467,2.467,0,0,0,1.1,1.336Z"/></g></g></svg>