<svg xmlns="http://www.w3.org/2000/svg" xmlns:xlink="http://www.w3.org/1999/xlink" width="48" height="48" viewBox="0 0 48 48"><defs><style>.a{fill:#fff;stroke:#707070;}.b{clip-path:url(#a);}.c{fill:#f9cc4e;}.d{fill:#6d7a84;}.e{fill:#e2e8ed;}.f{fill:#f95050;}.g{fill:#4ec4b5;}.h{fill:#142850;}</style><clipPath id="a"><rect class="a" width="48" height="48" transform="translate(288 736)"/></clipPath></defs><g class="b" transform="translate(-288 -736)"><g transform="translate(286.16 734.16)"><rect class="c" width="46.587" height="30.243" rx="3.258" transform="translate(2.546 10.718)"/><path class="d" d="M49.132,13.978V17.8H2.548V13.978A3.257,3.257,0,0,1,5.806,10.72H45.874a3.257,3.257,0,0,1,3.258,3.258Z"/><path class="e" d="M8.083,23.335H20.172V35.424H8.083Z"/><circle class="f" cx="2.122" cy="2.122" r="2.122" transform="translate(12.006 26.073)"/><path class="f" d="M11.016,35.424v-2a3.112,3.112,0,0,1,6.224,0v2Z"/><path class="g" d="M40.122,10.718V23.335L36.689,19.9l-3.433,3.433V10.718Z"/><path class="h" d="M13.018,11.426h1.817a.707.707,0,1,0,0-1.413H13.018a.707.707,0,0,0,0,1.413Z"/><path class="h" d="M45.876,10.013H18.33a.707.707,0,0,0,0,1.413H32.55v5.666H3.253V13.977A2.554,2.554,0,0,1,5.8,11.425H9.693a.707.707,0,1,0,0-1.413H5.8A3.969,3.969,0,0,0,1.84,13.977V37.7A3.969,3.969,0,0,0,5.8,41.668h33a.707.707,0,1,0,0-1.413H5.8A2.554,2.554,0,0,1,3.253,37.7V18.5h29.3v4.832a.707.707,0,0,0,1.206.5L36.689,20.9l2.934,2.933a.707.707,0,0,0,1.206-.5V18.5h7.6V37.7a2.554,2.554,0,0,1-2.551,2.552H41.9a.707.707,0,0,0,0,1.413h3.973A3.969,3.969,0,0,0,49.84,37.7V13.977A3.969,3.969,0,0,0,45.876,10.013Zm-6.46,11.618L37.189,19.4a.707.707,0,0,0-1,0l-2.227,2.227v-10.2h5.453Zm1.413-4.538V11.426h5.047a2.554,2.554,0,0,1,2.551,2.552v3.115Z"/><path class="h" d="M8.083,22.629a.707.707,0,0,0-.707.707V35.424a.706.706,0,0,0,.707.707H20.172a.706.706,0,0,0,.707-.707V23.337a.707.707,0,0,0-.707-.707Zm4.629,5.566a1.413,1.413,0,1,1,1.413,1.413,1.413,1.413,0,0,1-1.413-1.413Zm1.413,2.826a2.408,2.408,0,0,1,2.4,2.4v1.29H11.723V33.428a2.408,2.408,0,0,1,2.4-2.4Zm5.338,3.694H17.945V33.428a3.815,3.815,0,0,0-1.812-3.242,2.828,2.828,0,1,0-4.012,0,3.815,3.815,0,0,0-1.812,3.242v1.29H8.79V24.042H19.466Z"/><path class="h" d="M26.488,36.131H43.6a.707.707,0,1,0,0-1.413H26.488a.707.707,0,1,0,0,1.413Z"/><path class="h" d="M26.488,32.087H43.6a.707.707,0,0,0,0-1.413H26.488a.707.707,0,1,0,0,1.413Z"/><path class="h" d="M26.488,28.008H43.6a.707.707,0,0,0,0-1.413H26.488a.707.707,0,1,0,0,1.413Z"/></g></g></svg>